<svg xmlns="http://www.w3.org/2000/svg" viewBox="0 0 156 44"><defs><style>.a{fill:none;stroke:#2771bb;stroke-linecap:round;stroke-linejoin:round;stroke-width:4px;}</style></defs><path class="a" d="M74,37h0a5,5,0,0,0,5,5H89a5,5,0,0,0,5-5V27a5,5,0,0,0-5-5H79a5,5,0,0,1-5-5V7a5,5,0,0,1,5-5h41.31A2,2,0,0,1,122,5.09L100,38.91A2,2,0,0,0,101.69,42H141"/><path class="a" d="M154,7h0a5,5,0,0,0-5-5H133a5,5,0,0,0-5,5V37a5,5,0,0,0,5,5h16a5,5,0,0,0,5-5V26a5,5,0,0,0-5-5h-8"/><line class="a" x1="2" y1="2" x2="2" y2="42"/><line class="a" x1="12" y1="2" x2="12" y2="42"/><line class="a" x1="37" y1="2" x2="37" y2="42"/><line class="a" x1="22" y1="2" x2="52" y2="2"/><line class="a" x1="56" y1="22" x2="66" y2="22"/></svg>